<mxfile host="app.diagrams.net" modified="2023-09-13T02:18:48.238Z" agent="Mozilla/5.0 (Windows NT 10.0; Win64; x64) AppleWebKit/537.36 (KHTML, like Gecko) Chrome/116.0.0.0 Safari/537.36 Edg/116.0.1938.76" etag="kgvHCbEUOkWnS_3v8JY5" version="21.7.4" type="device">
  <diagram name="Page-1" id="PtpAq5A4GsEtPvq_XI12">
    <mxGraphModel dx="2899" dy="1897" grid="1" gridSize="10" guides="1" tooltips="1" connect="1" arrows="1" fold="1" page="1" pageScale="1" pageWidth="850" pageHeight="1100" math="0" shadow="0">
      <root>
        <mxCell id="0" />
        <mxCell id="1" parent="0" />
        <mxCell id="NA_mITxQsy1ahJIWrwkR-1" value="PostgreSQL DBMS" style="shape=process;whiteSpace=wrap;html=1;backgroundOutline=1;labelBackgroundColor=none;" vertex="1" parent="1">
          <mxGeometry x="160" y="-130" width="120" height="60" as="geometry" />
        </mxCell>
        <mxCell id="NA_mITxQsy1ahJIWrwkR-2" value="mainDB" style="shape=datastore;whiteSpace=wrap;html=1;labelBackgroundColor=none;" vertex="1" parent="1">
          <mxGeometry x="135" y="-10" width="60" height="60" as="geometry" />
        </mxCell>
        <mxCell id="NA_mITxQsy1ahJIWrwkR-3" value="user_id" style="shape=actor;whiteSpace=wrap;html=1;labelBackgroundColor=none;" vertex="1" parent="1">
          <mxGeometry x="300" y="700" width="40" height="60" as="geometry" />
        </mxCell>
        <mxCell id="NA_mITxQsy1ahJIWrwkR-4" value="person Table Tree Layout" style="swimlane;startSize=20;horizontal=1;childLayout=treeLayout;horizontalTree=0;resizable=0;containerType=tree;fontSize=12;labelBackgroundColor=none;" vertex="1" parent="1">
          <mxGeometry x="450" y="100" width="280" height="190" as="geometry" />
        </mxCell>
        <mxCell id="NA_mITxQsy1ahJIWrwkR-5" value="Person" style="whiteSpace=wrap;html=1;labelBackgroundColor=none;" vertex="1" parent="NA_mITxQsy1ahJIWrwkR-4">
          <mxGeometry x="90" y="40" width="100" height="40" as="geometry" />
        </mxCell>
        <mxCell id="NA_mITxQsy1ahJIWrwkR-6" value="id" style="whiteSpace=wrap;html=1;labelBackgroundColor=none;" vertex="1" parent="NA_mITxQsy1ahJIWrwkR-4">
          <mxGeometry x="20" y="130" width="100" height="40" as="geometry" />
        </mxCell>
        <mxCell id="NA_mITxQsy1ahJIWrwkR-7" value="" style="edgeStyle=elbowEdgeStyle;elbow=vertical;html=1;rounded=1;curved=0;sourcePerimeterSpacing=0;targetPerimeterSpacing=0;startSize=6;endSize=6;labelBackgroundColor=none;fontColor=default;" edge="1" parent="NA_mITxQsy1ahJIWrwkR-4" source="NA_mITxQsy1ahJIWrwkR-5" target="NA_mITxQsy1ahJIWrwkR-6">
          <mxGeometry relative="1" as="geometry" />
        </mxCell>
        <mxCell id="NA_mITxQsy1ahJIWrwkR-8" value="name" style="whiteSpace=wrap;html=1;labelBackgroundColor=none;" vertex="1" parent="NA_mITxQsy1ahJIWrwkR-4">
          <mxGeometry x="160" y="130" width="100" height="40" as="geometry" />
        </mxCell>
        <mxCell id="NA_mITxQsy1ahJIWrwkR-9" value="" style="edgeStyle=elbowEdgeStyle;elbow=vertical;html=1;rounded=1;curved=0;sourcePerimeterSpacing=0;targetPerimeterSpacing=0;startSize=6;endSize=6;labelBackgroundColor=none;fontColor=default;" edge="1" parent="NA_mITxQsy1ahJIWrwkR-4" source="NA_mITxQsy1ahJIWrwkR-5" target="NA_mITxQsy1ahJIWrwkR-8">
          <mxGeometry relative="1" as="geometry" />
        </mxCell>
        <mxCell id="NA_mITxQsy1ahJIWrwkR-66" style="edgeStyle=orthogonalEdgeStyle;rounded=0;orthogonalLoop=1;jettySize=auto;html=1;exitX=0;exitY=0.5;exitDx=0;exitDy=0;exitPerimeter=0;entryX=0.5;entryY=0;entryDx=0;entryDy=0;" edge="1" parent="1" source="NA_mITxQsy1ahJIWrwkR-10" target="NA_mITxQsy1ahJIWrwkR-15">
          <mxGeometry relative="1" as="geometry" />
        </mxCell>
        <mxCell id="NA_mITxQsy1ahJIWrwkR-10" value="name" style="strokeWidth=2;html=1;shape=mxgraph.flowchart.direct_data;whiteSpace=wrap;labelBackgroundColor=none;" vertex="1" parent="1">
          <mxGeometry x="-300" y="486" width="100" height="60" as="geometry" />
        </mxCell>
        <mxCell id="NA_mITxQsy1ahJIWrwkR-11" value="testDB" style="strokeWidth=2;html=1;shape=mxgraph.flowchart.database;whiteSpace=wrap;labelBackgroundColor=none;" vertex="1" parent="1">
          <mxGeometry x="250" y="-10" width="60" height="60" as="geometry" />
        </mxCell>
        <mxCell id="NA_mITxQsy1ahJIWrwkR-12" value="" style="strokeWidth=2;html=1;shape=mxgraph.flowchart.annotation_2;align=left;labelPosition=right;pointerEvents=1;labelBackgroundColor=none;rotation=90;" vertex="1" parent="1">
          <mxGeometry x="195" y="-90" width="50" height="100" as="geometry" />
        </mxCell>
        <mxCell id="NA_mITxQsy1ahJIWrwkR-52" style="edgeStyle=orthogonalEdgeStyle;rounded=0;orthogonalLoop=1;jettySize=auto;html=1;exitX=0.5;exitY=1;exitDx=0;exitDy=0;" edge="1" parent="1" source="NA_mITxQsy1ahJIWrwkR-13">
          <mxGeometry relative="1" as="geometry">
            <mxPoint x="-255" y="486" as="targetPoint" />
          </mxGeometry>
        </mxCell>
        <mxCell id="NA_mITxQsy1ahJIWrwkR-13" value="" style="ellipse;html=1;shape=startState;labelBackgroundColor=none;" vertex="1" parent="1">
          <mxGeometry x="-265" y="346" width="30" height="30" as="geometry" />
        </mxCell>
        <mxCell id="NA_mITxQsy1ahJIWrwkR-65" style="edgeStyle=orthogonalEdgeStyle;rounded=0;orthogonalLoop=1;jettySize=auto;html=1;exitX=0.5;exitY=1;exitDx=0;exitDy=0;entryX=0.5;entryY=0;entryDx=0;entryDy=0;" edge="1" parent="1" source="NA_mITxQsy1ahJIWrwkR-15" target="NA_mITxQsy1ahJIWrwkR-62">
          <mxGeometry relative="1" as="geometry" />
        </mxCell>
        <mxCell id="NA_mITxQsy1ahJIWrwkR-67" style="edgeStyle=orthogonalEdgeStyle;rounded=0;orthogonalLoop=1;jettySize=auto;html=1;exitX=1;exitY=0.5;exitDx=0;exitDy=0;" edge="1" parent="1" source="NA_mITxQsy1ahJIWrwkR-15">
          <mxGeometry relative="1" as="geometry">
            <mxPoint x="-200" y="596" as="targetPoint" />
          </mxGeometry>
        </mxCell>
        <mxCell id="NA_mITxQsy1ahJIWrwkR-15" value="validate" style="rhombus;whiteSpace=wrap;html=1;labelBackgroundColor=none;" vertex="1" parent="1">
          <mxGeometry x="-360" y="576" width="80" height="40" as="geometry" />
        </mxCell>
        <mxCell id="NA_mITxQsy1ahJIWrwkR-26" value="+ create: person" style="text;strokeColor=none;fillColor=none;align=left;verticalAlign=top;spacingLeft=4;spacingRight=4;overflow=hidden;rotatable=0;points=[[0,0.5],[1,0.5]];portConstraint=eastwest;whiteSpace=wrap;html=1;labelBackgroundColor=none;" vertex="1" parent="1">
          <mxGeometry x="-300" y="320" width="100" height="26" as="geometry" />
        </mxCell>
        <mxCell id="NA_mITxQsy1ahJIWrwkR-27" value="+ read: person" style="text;strokeColor=none;fillColor=none;align=left;verticalAlign=top;spacingLeft=4;spacingRight=4;overflow=hidden;rotatable=0;points=[[0,0.5],[1,0.5]];portConstraint=eastwest;whiteSpace=wrap;html=1;labelBackgroundColor=none;" vertex="1" parent="1">
          <mxGeometry x="60" y="344" width="100" height="26" as="geometry" />
        </mxCell>
        <mxCell id="NA_mITxQsy1ahJIWrwkR-28" value="person table Columns" style="shape=table;startSize=30;container=1;collapsible=0;childLayout=tableLayout;fixedRows=1;rowLines=0;fontStyle=0;fontSize=16;labelBackgroundColor=none;" vertex="1" parent="1">
          <mxGeometry x="-220" y="120" width="180" height="90" as="geometry" />
        </mxCell>
        <mxCell id="NA_mITxQsy1ahJIWrwkR-29" value="" style="shape=tableRow;horizontal=0;startSize=0;swimlaneHead=0;swimlaneBody=0;top=0;left=0;bottom=0;right=0;collapsible=0;dropTarget=0;fillColor=none;points=[[0,0.5],[1,0.5]];portConstraint=eastwest;fontSize=16;labelBackgroundColor=none;" vertex="1" parent="NA_mITxQsy1ahJIWrwkR-28">
          <mxGeometry y="30" width="180" height="30" as="geometry" />
        </mxCell>
        <mxCell id="NA_mITxQsy1ahJIWrwkR-30" value="1" style="shape=partialRectangle;html=1;whiteSpace=wrap;connectable=0;fillColor=none;top=0;left=0;bottom=0;right=0;overflow=hidden;pointerEvents=1;fontSize=16;labelBackgroundColor=none;" vertex="1" parent="NA_mITxQsy1ahJIWrwkR-29">
          <mxGeometry width="40" height="30" as="geometry">
            <mxRectangle width="40" height="30" as="alternateBounds" />
          </mxGeometry>
        </mxCell>
        <mxCell id="NA_mITxQsy1ahJIWrwkR-31" value="id" style="shape=partialRectangle;html=1;whiteSpace=wrap;connectable=0;fillColor=none;top=0;left=0;bottom=0;right=0;align=left;spacingLeft=6;overflow=hidden;fontSize=16;labelBackgroundColor=none;" vertex="1" parent="NA_mITxQsy1ahJIWrwkR-29">
          <mxGeometry x="40" width="140" height="30" as="geometry">
            <mxRectangle width="140" height="30" as="alternateBounds" />
          </mxGeometry>
        </mxCell>
        <mxCell id="NA_mITxQsy1ahJIWrwkR-32" value="" style="shape=tableRow;horizontal=0;startSize=0;swimlaneHead=0;swimlaneBody=0;top=0;left=0;bottom=0;right=0;collapsible=0;dropTarget=0;fillColor=none;points=[[0,0.5],[1,0.5]];portConstraint=eastwest;fontSize=16;labelBackgroundColor=none;" vertex="1" parent="NA_mITxQsy1ahJIWrwkR-28">
          <mxGeometry y="60" width="180" height="30" as="geometry" />
        </mxCell>
        <mxCell id="NA_mITxQsy1ahJIWrwkR-33" value="2" style="shape=partialRectangle;html=1;whiteSpace=wrap;connectable=0;fillColor=none;top=0;left=0;bottom=0;right=0;overflow=hidden;fontSize=16;labelBackgroundColor=none;" vertex="1" parent="NA_mITxQsy1ahJIWrwkR-32">
          <mxGeometry width="40" height="30" as="geometry">
            <mxRectangle width="40" height="30" as="alternateBounds" />
          </mxGeometry>
        </mxCell>
        <mxCell id="NA_mITxQsy1ahJIWrwkR-34" value="name" style="shape=partialRectangle;html=1;whiteSpace=wrap;connectable=0;fillColor=none;top=0;left=0;bottom=0;right=0;align=left;spacingLeft=6;overflow=hidden;fontSize=16;labelBackgroundColor=none;" vertex="1" parent="NA_mITxQsy1ahJIWrwkR-32">
          <mxGeometry x="40" width="140" height="30" as="geometry">
            <mxRectangle width="140" height="30" as="alternateBounds" />
          </mxGeometry>
        </mxCell>
        <mxCell id="NA_mITxQsy1ahJIWrwkR-38" value="person table" style="shape=table;startSize=30;container=1;collapsible=1;childLayout=tableLayout;fixedRows=1;rowLines=0;fontStyle=1;align=center;resizeLast=1;html=1;labelBackgroundColor=none;" vertex="1" parent="1">
          <mxGeometry x="135" y="120" width="180" height="90" as="geometry" />
        </mxCell>
        <mxCell id="NA_mITxQsy1ahJIWrwkR-39" value="" style="shape=tableRow;horizontal=0;startSize=0;swimlaneHead=0;swimlaneBody=0;fillColor=none;collapsible=0;dropTarget=0;points=[[0,0.5],[1,0.5]];portConstraint=eastwest;top=0;left=0;right=0;bottom=1;labelBackgroundColor=none;" vertex="1" parent="NA_mITxQsy1ahJIWrwkR-38">
          <mxGeometry y="30" width="180" height="30" as="geometry" />
        </mxCell>
        <mxCell id="NA_mITxQsy1ahJIWrwkR-40" value="PK" style="shape=partialRectangle;connectable=0;fillColor=none;top=0;left=0;bottom=0;right=0;fontStyle=1;overflow=hidden;whiteSpace=wrap;html=1;labelBackgroundColor=none;" vertex="1" parent="NA_mITxQsy1ahJIWrwkR-39">
          <mxGeometry width="30" height="30" as="geometry">
            <mxRectangle width="30" height="30" as="alternateBounds" />
          </mxGeometry>
        </mxCell>
        <mxCell id="NA_mITxQsy1ahJIWrwkR-41" value="id" style="shape=partialRectangle;connectable=0;fillColor=none;top=0;left=0;bottom=0;right=0;align=left;spacingLeft=6;fontStyle=5;overflow=hidden;whiteSpace=wrap;html=1;labelBackgroundColor=none;" vertex="1" parent="NA_mITxQsy1ahJIWrwkR-39">
          <mxGeometry x="30" width="150" height="30" as="geometry">
            <mxRectangle width="150" height="30" as="alternateBounds" />
          </mxGeometry>
        </mxCell>
        <mxCell id="NA_mITxQsy1ahJIWrwkR-42" value="" style="shape=tableRow;horizontal=0;startSize=0;swimlaneHead=0;swimlaneBody=0;fillColor=none;collapsible=0;dropTarget=0;points=[[0,0.5],[1,0.5]];portConstraint=eastwest;top=0;left=0;right=0;bottom=0;labelBackgroundColor=none;" vertex="1" parent="NA_mITxQsy1ahJIWrwkR-38">
          <mxGeometry y="60" width="180" height="30" as="geometry" />
        </mxCell>
        <mxCell id="NA_mITxQsy1ahJIWrwkR-43" value="" style="shape=partialRectangle;connectable=0;fillColor=none;top=0;left=0;bottom=0;right=0;editable=1;overflow=hidden;whiteSpace=wrap;html=1;labelBackgroundColor=none;" vertex="1" parent="NA_mITxQsy1ahJIWrwkR-42">
          <mxGeometry width="30" height="30" as="geometry">
            <mxRectangle width="30" height="30" as="alternateBounds" />
          </mxGeometry>
        </mxCell>
        <mxCell id="NA_mITxQsy1ahJIWrwkR-44" value="name" style="shape=partialRectangle;connectable=0;fillColor=none;top=0;left=0;bottom=0;right=0;align=left;spacingLeft=6;overflow=hidden;whiteSpace=wrap;html=1;labelBackgroundColor=none;" vertex="1" parent="NA_mITxQsy1ahJIWrwkR-42">
          <mxGeometry x="30" width="150" height="30" as="geometry">
            <mxRectangle width="150" height="30" as="alternateBounds" />
          </mxGeometry>
        </mxCell>
        <mxCell id="NA_mITxQsy1ahJIWrwkR-53" value="+ update: person" style="text;strokeColor=none;fillColor=none;align=left;verticalAlign=top;spacingLeft=4;spacingRight=4;overflow=hidden;rotatable=0;points=[[0,0.5],[1,0.5]];portConstraint=eastwest;whiteSpace=wrap;html=1;labelBackgroundColor=none;" vertex="1" parent="1">
          <mxGeometry x="440" y="346" width="110" height="26" as="geometry" />
        </mxCell>
        <mxCell id="NA_mITxQsy1ahJIWrwkR-54" value="+ delete: person" style="text;strokeColor=none;fillColor=none;align=left;verticalAlign=top;spacingLeft=4;spacingRight=4;overflow=hidden;rotatable=0;points=[[0,0.5],[1,0.5]];portConstraint=eastwest;whiteSpace=wrap;html=1;labelBackgroundColor=none;" vertex="1" parent="1">
          <mxGeometry x="860" y="354" width="100" height="26" as="geometry" />
        </mxCell>
        <mxCell id="NA_mITxQsy1ahJIWrwkR-59" style="edgeStyle=orthogonalEdgeStyle;rounded=0;orthogonalLoop=1;jettySize=auto;html=1;exitX=0.5;exitY=1;exitDx=0;exitDy=0;" edge="1" parent="1" source="NA_mITxQsy1ahJIWrwkR-55">
          <mxGeometry relative="1" as="geometry">
            <mxPoint x="95" y="510" as="targetPoint" />
          </mxGeometry>
        </mxCell>
        <mxCell id="NA_mITxQsy1ahJIWrwkR-55" value="" style="ellipse;html=1;shape=startState;labelBackgroundColor=none;" vertex="1" parent="1">
          <mxGeometry x="95" y="370" width="30" height="30" as="geometry" />
        </mxCell>
        <mxCell id="NA_mITxQsy1ahJIWrwkR-60" style="edgeStyle=orthogonalEdgeStyle;rounded=0;orthogonalLoop=1;jettySize=auto;html=1;exitX=0.5;exitY=1;exitDx=0;exitDy=0;" edge="1" parent="1" source="NA_mITxQsy1ahJIWrwkR-57">
          <mxGeometry relative="1" as="geometry">
            <mxPoint x="520" y="502" as="targetPoint" />
          </mxGeometry>
        </mxCell>
        <mxCell id="NA_mITxQsy1ahJIWrwkR-57" value="" style="ellipse;html=1;shape=startState;labelBackgroundColor=none;" vertex="1" parent="1">
          <mxGeometry x="480" y="372" width="30" height="30" as="geometry" />
        </mxCell>
        <mxCell id="NA_mITxQsy1ahJIWrwkR-61" style="edgeStyle=orthogonalEdgeStyle;rounded=0;orthogonalLoop=1;jettySize=auto;html=1;exitX=0.5;exitY=1;exitDx=0;exitDy=0;" edge="1" parent="1" source="NA_mITxQsy1ahJIWrwkR-58">
          <mxGeometry relative="1" as="geometry">
            <mxPoint x="910" y="520" as="targetPoint" />
          </mxGeometry>
        </mxCell>
        <mxCell id="NA_mITxQsy1ahJIWrwkR-58" value="" style="ellipse;html=1;shape=startState;labelBackgroundColor=none;" vertex="1" parent="1">
          <mxGeometry x="895" y="380" width="30" height="30" as="geometry" />
        </mxCell>
        <mxCell id="NA_mITxQsy1ahJIWrwkR-72" style="edgeStyle=orthogonalEdgeStyle;rounded=0;orthogonalLoop=1;jettySize=auto;html=1;exitX=0.5;exitY=1;exitDx=0;exitDy=0;entryX=0.5;entryY=0;entryDx=0;entryDy=0;" edge="1" parent="1" source="NA_mITxQsy1ahJIWrwkR-62" target="NA_mITxQsy1ahJIWrwkR-71">
          <mxGeometry relative="1" as="geometry" />
        </mxCell>
        <mxCell id="NA_mITxQsy1ahJIWrwkR-62" value="Person Object" style="ellipse;shape=umlEntity;whiteSpace=wrap;html=1;" vertex="1" parent="1">
          <mxGeometry x="-300" y="746" width="80" height="80" as="geometry" />
        </mxCell>
        <mxCell id="NA_mITxQsy1ahJIWrwkR-68" value="" style="ellipse;html=1;shape=endState;fillColor=#000000;strokeColor=#ff0000;" vertex="1" parent="1">
          <mxGeometry x="-200" y="586" width="30" height="30" as="geometry" />
        </mxCell>
        <mxCell id="NA_mITxQsy1ahJIWrwkR-69" value="Name is Required" style="whiteSpace=wrap;html=1;shape=mxgraph.basic.roundRectCallout;dx=30;dy=15;size=5;boundedLbl=1;" vertex="1" parent="1">
          <mxGeometry x="-190" y="530" width="100" height="60" as="geometry" />
        </mxCell>
        <mxCell id="NA_mITxQsy1ahJIWrwkR-70" value="Person Created Successfully" style="whiteSpace=wrap;html=1;shape=mxgraph.basic.roundRectCallout;dx=30;dy=15;size=5;boundedLbl=1;" vertex="1" parent="1">
          <mxGeometry x="-245" y="700" width="100" height="60" as="geometry" />
        </mxCell>
        <mxCell id="NA_mITxQsy1ahJIWrwkR-71" value="mainDB" style="shape=datastore;whiteSpace=wrap;html=1;labelBackgroundColor=none;" vertex="1" parent="1">
          <mxGeometry x="-295" y="856" width="60" height="60" as="geometry" />
        </mxCell>
        <mxCell id="NA_mITxQsy1ahJIWrwkR-73" value="" style="ellipse;html=1;shape=endState;fillColor=#000000;strokeColor=#ff0000;" vertex="1" parent="1">
          <mxGeometry x="-275" y="916" width="30" height="30" as="geometry" />
        </mxCell>
        <mxCell id="NA_mITxQsy1ahJIWrwkR-88" style="edgeStyle=orthogonalEdgeStyle;rounded=0;orthogonalLoop=1;jettySize=auto;html=1;exitX=0;exitY=0.5;exitDx=0;exitDy=0;exitPerimeter=0;entryX=0.5;entryY=0;entryDx=0;entryDy=0;" edge="1" parent="1" source="NA_mITxQsy1ahJIWrwkR-75" target="NA_mITxQsy1ahJIWrwkR-84">
          <mxGeometry relative="1" as="geometry" />
        </mxCell>
        <mxCell id="NA_mITxQsy1ahJIWrwkR-75" value="person_id" style="strokeWidth=2;html=1;shape=mxgraph.flowchart.direct_data;whiteSpace=wrap;labelBackgroundColor=none;" vertex="1" parent="1">
          <mxGeometry x="42.5" y="510" width="100" height="60" as="geometry" />
        </mxCell>
        <mxCell id="NA_mITxQsy1ahJIWrwkR-77" style="edgeStyle=orthogonalEdgeStyle;rounded=0;orthogonalLoop=1;jettySize=auto;html=1;exitX=1;exitY=0.5;exitDx=0;exitDy=0;" edge="1" parent="1">
          <mxGeometry relative="1" as="geometry">
            <mxPoint x="142.5" y="620" as="targetPoint" />
            <mxPoint x="62.5" y="620" as="sourcePoint" />
          </mxGeometry>
        </mxCell>
        <mxCell id="NA_mITxQsy1ahJIWrwkR-78" style="edgeStyle=orthogonalEdgeStyle;rounded=0;orthogonalLoop=1;jettySize=auto;html=1;exitX=0.5;exitY=1;exitDx=0;exitDy=0;entryX=0.5;entryY=0;entryDx=0;entryDy=0;" edge="1" parent="1">
          <mxGeometry relative="1" as="geometry">
            <mxPoint x="82.5" y="850" as="sourcePoint" />
            <mxPoint x="82.5" y="880" as="targetPoint" />
          </mxGeometry>
        </mxCell>
        <mxCell id="NA_mITxQsy1ahJIWrwkR-80" value="" style="ellipse;html=1;shape=endState;fillColor=#000000;strokeColor=#ff0000;" vertex="1" parent="1">
          <mxGeometry x="560" y="735" width="30" height="30" as="geometry" />
        </mxCell>
        <mxCell id="NA_mITxQsy1ahJIWrwkR-83" value="" style="ellipse;html=1;shape=endState;fillColor=#000000;strokeColor=#ff0000;" vertex="1" parent="1">
          <mxGeometry x="125" y="900" width="30" height="30" as="geometry" />
        </mxCell>
        <mxCell id="NA_mITxQsy1ahJIWrwkR-86" style="edgeStyle=orthogonalEdgeStyle;rounded=0;orthogonalLoop=1;jettySize=auto;html=1;exitX=0.5;exitY=1;exitDx=0;exitDy=0;" edge="1" parent="1" source="NA_mITxQsy1ahJIWrwkR-84">
          <mxGeometry relative="1" as="geometry">
            <mxPoint x="90" y="750" as="targetPoint" />
          </mxGeometry>
        </mxCell>
        <mxCell id="NA_mITxQsy1ahJIWrwkR-84" value="validate" style="rhombus;whiteSpace=wrap;html=1;labelBackgroundColor=none;" vertex="1" parent="1">
          <mxGeometry x="-12.5" y="600" width="80" height="40" as="geometry" />
        </mxCell>
        <mxCell id="NA_mITxQsy1ahJIWrwkR-87" value="Person not found" style="whiteSpace=wrap;html=1;shape=mxgraph.basic.roundRectCallout;dx=30;dy=15;size=5;boundedLbl=1;" vertex="1" parent="1">
          <mxGeometry x="160" y="560" width="100" height="60" as="geometry" />
        </mxCell>
        <mxCell id="NA_mITxQsy1ahJIWrwkR-89" value="" style="html=1;points=[[0,0,0,0,5],[0,1,0,0,-5],[1,0,0,0,5],[1,1,0,0,-5]];perimeter=orthogonalPerimeter;outlineConnect=0;targetShapes=umlLifeline;portConstraint=eastwest;newEdgeStyle={&quot;curved&quot;:0,&quot;rounded&quot;:0};" vertex="1" parent="1">
          <mxGeometry x="22.5" y="740" width="10" height="80" as="geometry" />
        </mxCell>
        <mxCell id="NA_mITxQsy1ahJIWrwkR-90" value="callback" style="html=1;verticalAlign=bottom;endArrow=block;curved=0;rounded=0;entryX=1;entryY=0;entryDx=0;entryDy=5;" edge="1" target="NA_mITxQsy1ahJIWrwkR-89" parent="1">
          <mxGeometry relative="1" as="geometry">
            <mxPoint x="90" y="745" as="sourcePoint" />
          </mxGeometry>
        </mxCell>
        <mxCell id="NA_mITxQsy1ahJIWrwkR-91" value="return" style="html=1;verticalAlign=bottom;endArrow=open;dashed=1;endSize=8;curved=0;rounded=0;exitX=1;exitY=1;exitDx=0;exitDy=-5;" edge="1" source="NA_mITxQsy1ahJIWrwkR-89" parent="1">
          <mxGeometry relative="1" as="geometry">
            <mxPoint x="90" y="815" as="targetPoint" />
          </mxGeometry>
        </mxCell>
        <mxCell id="NA_mITxQsy1ahJIWrwkR-92" value="" style="rounded=1;absoluteArcSize=1;html=1;arcSize=10;" vertex="1" parent="1">
          <mxGeometry x="90" y="790" width="100" height="100" as="geometry" />
        </mxCell>
        <mxCell id="NA_mITxQsy1ahJIWrwkR-93" value="id" style="html=1;shape=mxgraph.er.anchor;whiteSpace=wrap;" vertex="1" parent="NA_mITxQsy1ahJIWrwkR-92">
          <mxGeometry width="50" height="100" as="geometry" />
        </mxCell>
        <mxCell id="NA_mITxQsy1ahJIWrwkR-94" value="name" style="rounded=1;absoluteArcSize=1;html=1;arcSize=10;whiteSpace=wrap;points=[];strokeColor=inherit;fillColor=inherit;" vertex="1" parent="NA_mITxQsy1ahJIWrwkR-92">
          <mxGeometry x="50" y="5" width="45" height="90" as="geometry" />
        </mxCell>
        <mxCell id="NA_mITxQsy1ahJIWrwkR-110" style="edgeStyle=orthogonalEdgeStyle;rounded=0;orthogonalLoop=1;jettySize=auto;html=1;exitX=0.5;exitY=1;exitDx=0;exitDy=0;exitPerimeter=0;entryX=0.488;entryY=-0.2;entryDx=0;entryDy=0;entryPerimeter=0;" edge="1" parent="1" source="NA_mITxQsy1ahJIWrwkR-95" target="NA_mITxQsy1ahJIWrwkR-98">
          <mxGeometry relative="1" as="geometry">
            <mxPoint x="480" y="550" as="targetPoint" />
          </mxGeometry>
        </mxCell>
        <mxCell id="NA_mITxQsy1ahJIWrwkR-95" value="name" style="strokeWidth=2;html=1;shape=mxgraph.flowchart.direct_data;whiteSpace=wrap;labelBackgroundColor=none;" vertex="1" parent="1">
          <mxGeometry x="450" y="450" width="100" height="60" as="geometry" />
        </mxCell>
        <mxCell id="NA_mITxQsy1ahJIWrwkR-98" value="Condition" style="rhombus;whiteSpace=wrap;html=1;fontColor=#000000;fillColor=#ffffc0;strokeColor=#ff0000;" vertex="1" parent="1">
          <mxGeometry x="410" y="594" width="80" height="40" as="geometry" />
        </mxCell>
        <mxCell id="NA_mITxQsy1ahJIWrwkR-99" value="no" style="edgeStyle=orthogonalEdgeStyle;html=1;align=left;verticalAlign=bottom;endArrow=open;endSize=8;strokeColor=#ff0000;rounded=0;" edge="1" parent="1">
          <mxGeometry x="-1" relative="1" as="geometry">
            <mxPoint x="580" y="614" as="targetPoint" />
            <mxPoint x="480" y="614" as="sourcePoint" />
          </mxGeometry>
        </mxCell>
        <mxCell id="NA_mITxQsy1ahJIWrwkR-100" value="yes" style="edgeStyle=orthogonalEdgeStyle;html=1;align=left;verticalAlign=top;endArrow=open;endSize=8;strokeColor=#ff0000;rounded=0;" edge="1" source="NA_mITxQsy1ahJIWrwkR-103" parent="1">
          <mxGeometry x="-1" relative="1" as="geometry">
            <mxPoint x="420" y="730" as="targetPoint" />
          </mxGeometry>
        </mxCell>
        <mxCell id="NA_mITxQsy1ahJIWrwkR-101" value="name is required" style="whiteSpace=wrap;html=1;shape=mxgraph.basic.roundRectCallout;dx=30;dy=15;size=5;boundedLbl=1;" vertex="1" parent="1">
          <mxGeometry x="590" y="550" width="100" height="60" as="geometry" />
        </mxCell>
        <mxCell id="NA_mITxQsy1ahJIWrwkR-102" value="" style="ellipse;html=1;shape=endState;fillColor=#000000;strokeColor=#ff0000;" vertex="1" parent="1">
          <mxGeometry x="152.5" y="620" width="30" height="30" as="geometry" />
        </mxCell>
        <mxCell id="NA_mITxQsy1ahJIWrwkR-104" value="no" style="edgeStyle=orthogonalEdgeStyle;html=1;align=left;verticalAlign=bottom;endArrow=open;endSize=8;strokeColor=#ff0000;rounded=0;" edge="1" source="NA_mITxQsy1ahJIWrwkR-103" parent="1">
          <mxGeometry x="-1" relative="1" as="geometry">
            <mxPoint x="560" y="745" as="targetPoint" />
          </mxGeometry>
        </mxCell>
        <mxCell id="NA_mITxQsy1ahJIWrwkR-105" value="yes" style="edgeStyle=orthogonalEdgeStyle;html=1;align=left;verticalAlign=top;endArrow=open;endSize=8;strokeColor=#ff0000;rounded=0;entryX=0.5;entryY=0;entryDx=0;entryDy=0;" edge="1" source="NA_mITxQsy1ahJIWrwkR-108" parent="1" target="NA_mITxQsy1ahJIWrwkR-115">
          <mxGeometry x="-1" relative="1" as="geometry">
            <mxPoint x="420" y="910" as="targetPoint" />
          </mxGeometry>
        </mxCell>
        <mxCell id="NA_mITxQsy1ahJIWrwkR-106" value="" style="ellipse;html=1;shape=endState;fillColor=#000000;strokeColor=#ff0000;" vertex="1" parent="1">
          <mxGeometry x="580" y="599" width="30" height="30" as="geometry" />
        </mxCell>
        <mxCell id="NA_mITxQsy1ahJIWrwkR-107" value="Person not found" style="whiteSpace=wrap;html=1;shape=mxgraph.basic.roundRectCallout;dx=30;dy=15;size=5;boundedLbl=1;" vertex="1" parent="1">
          <mxGeometry x="570" y="680" width="100" height="60" as="geometry" />
        </mxCell>
        <mxCell id="NA_mITxQsy1ahJIWrwkR-109" value="Person Updated Successfully" style="whiteSpace=wrap;html=1;shape=mxgraph.basic.roundRectCallout;dx=30;dy=15;size=5;boundedLbl=1;" vertex="1" parent="1">
          <mxGeometry x="425" y="900" width="100" height="60" as="geometry" />
        </mxCell>
        <mxCell id="NA_mITxQsy1ahJIWrwkR-111" value="" style="rounded=0;orthogonalLoop=1;jettySize=auto;html=1;endArrow=halfCircle;endFill=0;endSize=6;strokeWidth=1;sketch=0;fontSize=12;curved=1;" edge="1" target="NA_mITxQsy1ahJIWrwkR-112" parent="1">
          <mxGeometry relative="1" as="geometry">
            <mxPoint x="420" y="730" as="sourcePoint" />
          </mxGeometry>
        </mxCell>
        <mxCell id="NA_mITxQsy1ahJIWrwkR-112" value="" style="ellipse;whiteSpace=wrap;html=1;align=center;aspect=fixed;fillColor=none;strokeColor=none;resizable=0;perimeter=centerPerimeter;rotatable=0;allowArrows=0;points=[];outlineConnect=1;" vertex="1" parent="1">
          <mxGeometry x="340" y="725" width="10" height="10" as="geometry" />
        </mxCell>
        <mxCell id="NA_mITxQsy1ahJIWrwkR-113" value="" style="edgeStyle=orthogonalEdgeStyle;html=1;align=left;verticalAlign=top;endArrow=open;endSize=8;strokeColor=#ff0000;rounded=0;" edge="1" parent="1" source="NA_mITxQsy1ahJIWrwkR-98" target="NA_mITxQsy1ahJIWrwkR-103">
          <mxGeometry x="-1" relative="1" as="geometry">
            <mxPoint x="420" y="730" as="targetPoint" />
            <mxPoint x="450" y="634" as="sourcePoint" />
          </mxGeometry>
        </mxCell>
        <mxCell id="NA_mITxQsy1ahJIWrwkR-103" value="Condition" style="rhombus;whiteSpace=wrap;html=1;fontColor=#000000;fillColor=#ffffc0;strokeColor=#ff0000;" vertex="1" parent="1">
          <mxGeometry x="380" y="725" width="80" height="40" as="geometry" />
        </mxCell>
        <mxCell id="NA_mITxQsy1ahJIWrwkR-114" value="" style="edgeStyle=orthogonalEdgeStyle;html=1;align=left;verticalAlign=top;endArrow=open;endSize=8;strokeColor=#ff0000;rounded=0;" edge="1" parent="1" source="NA_mITxQsy1ahJIWrwkR-103" target="NA_mITxQsy1ahJIWrwkR-108">
          <mxGeometry x="-1" relative="1" as="geometry">
            <mxPoint x="420" y="910" as="targetPoint" />
            <mxPoint x="420" y="765" as="sourcePoint" />
          </mxGeometry>
        </mxCell>
        <mxCell id="NA_mITxQsy1ahJIWrwkR-108" value="mainDB" style="shape=datastore;whiteSpace=wrap;html=1;labelBackgroundColor=none;" vertex="1" parent="1">
          <mxGeometry x="390" y="820" width="60" height="60" as="geometry" />
        </mxCell>
        <mxCell id="NA_mITxQsy1ahJIWrwkR-115" value="" style="ellipse;html=1;shape=endState;fillColor=#000000;strokeColor=#ff0000;" vertex="1" parent="1">
          <mxGeometry x="405" y="945" width="30" height="30" as="geometry" />
        </mxCell>
        <mxCell id="NA_mITxQsy1ahJIWrwkR-120" style="edgeStyle=orthogonalEdgeStyle;rounded=0;orthogonalLoop=1;jettySize=auto;html=1;exitX=0.5;exitY=1;exitDx=0;exitDy=0;exitPerimeter=0;entryX=0.5;entryY=0;entryDx=0;entryDy=0;" edge="1" parent="1" source="NA_mITxQsy1ahJIWrwkR-116" target="NA_mITxQsy1ahJIWrwkR-117">
          <mxGeometry relative="1" as="geometry" />
        </mxCell>
        <mxCell id="NA_mITxQsy1ahJIWrwkR-116" value="user_id" style="strokeWidth=2;html=1;shape=mxgraph.flowchart.direct_data;whiteSpace=wrap;labelBackgroundColor=none;" vertex="1" parent="1">
          <mxGeometry x="860" y="516" width="100" height="60" as="geometry" />
        </mxCell>
        <mxCell id="NA_mITxQsy1ahJIWrwkR-122" style="edgeStyle=orthogonalEdgeStyle;rounded=0;orthogonalLoop=1;jettySize=auto;html=1;exitX=0.5;exitY=1;exitDx=0;exitDy=0;entryX=0.483;entryY=-0.1;entryDx=0;entryDy=0;entryPerimeter=0;" edge="1" parent="1" source="NA_mITxQsy1ahJIWrwkR-117" target="NA_mITxQsy1ahJIWrwkR-126">
          <mxGeometry relative="1" as="geometry">
            <mxPoint x="900" y="750" as="targetPoint" />
          </mxGeometry>
        </mxCell>
        <mxCell id="NA_mITxQsy1ahJIWrwkR-117" value="Condition" style="rhombus;whiteSpace=wrap;html=1;fontColor=#000000;fillColor=#ffffc0;strokeColor=#ff0000;" vertex="1" parent="1">
          <mxGeometry x="860" y="634" width="80" height="40" as="geometry" />
        </mxCell>
        <mxCell id="NA_mITxQsy1ahJIWrwkR-118" value="no" style="edgeStyle=orthogonalEdgeStyle;html=1;align=left;verticalAlign=bottom;endArrow=open;endSize=8;strokeColor=#ff0000;rounded=0;" edge="1" parent="1">
          <mxGeometry x="-1" relative="1" as="geometry">
            <mxPoint x="1030" y="654" as="targetPoint" />
            <mxPoint x="930" y="654" as="sourcePoint" />
          </mxGeometry>
        </mxCell>
        <mxCell id="NA_mITxQsy1ahJIWrwkR-119" value="" style="ellipse;html=1;shape=endState;fillColor=#000000;strokeColor=#ff0000;" vertex="1" parent="1">
          <mxGeometry x="1030" y="639" width="30" height="30" as="geometry" />
        </mxCell>
        <mxCell id="NA_mITxQsy1ahJIWrwkR-121" value="person not found" style="whiteSpace=wrap;html=1;shape=mxgraph.basic.roundRectCallout;dx=30;dy=15;size=5;boundedLbl=1;" vertex="1" parent="1">
          <mxGeometry x="1040" y="576" width="100" height="60" as="geometry" />
        </mxCell>
        <mxCell id="NA_mITxQsy1ahJIWrwkR-123" value="user_id" style="shape=actor;whiteSpace=wrap;html=1;labelBackgroundColor=none;" vertex="1" parent="1">
          <mxGeometry x="790" y="620" width="40" height="60" as="geometry" />
        </mxCell>
        <mxCell id="NA_mITxQsy1ahJIWrwkR-124" value="" style="ellipse;whiteSpace=wrap;html=1;align=center;aspect=fixed;fillColor=none;strokeColor=none;resizable=0;perimeter=centerPerimeter;rotatable=0;allowArrows=0;points=[];outlineConnect=1;" vertex="1" parent="1">
          <mxGeometry x="830" y="645" width="10" height="10" as="geometry" />
        </mxCell>
        <mxCell id="NA_mITxQsy1ahJIWrwkR-125" value="" style="rounded=0;orthogonalLoop=1;jettySize=auto;html=1;endArrow=halfCircle;endFill=0;endSize=6;strokeWidth=1;sketch=0;fontSize=12;curved=1;exitX=0;exitY=0.5;exitDx=0;exitDy=0;" edge="1" parent="1" source="NA_mITxQsy1ahJIWrwkR-117" target="NA_mITxQsy1ahJIWrwkR-123">
          <mxGeometry relative="1" as="geometry">
            <mxPoint x="730" y="770" as="sourcePoint" />
            <mxPoint x="840" y="740" as="targetPoint" />
          </mxGeometry>
        </mxCell>
        <mxCell id="NA_mITxQsy1ahJIWrwkR-131" style="edgeStyle=orthogonalEdgeStyle;rounded=0;orthogonalLoop=1;jettySize=auto;html=1;exitX=1;exitY=0.5;exitDx=0;exitDy=0;entryX=-0.125;entryY=0.6;entryDx=0;entryDy=0;entryPerimeter=0;" edge="1" parent="1" source="NA_mITxQsy1ahJIWrwkR-126" target="NA_mITxQsy1ahJIWrwkR-130">
          <mxGeometry relative="1" as="geometry" />
        </mxCell>
        <mxCell id="NA_mITxQsy1ahJIWrwkR-126" value="mainDB" style="shape=datastore;whiteSpace=wrap;html=1;labelBackgroundColor=none;" vertex="1" parent="1">
          <mxGeometry x="870" y="790" width="60" height="60" as="geometry" />
        </mxCell>
        <mxCell id="NA_mITxQsy1ahJIWrwkR-129" value="" style="shape=umlDestroy;whiteSpace=wrap;html=1;strokeWidth=3;targetShapes=umlLifeline;" vertex="1" parent="1">
          <mxGeometry x="980" y="811" width="30" height="30" as="geometry" />
        </mxCell>
        <mxCell id="NA_mITxQsy1ahJIWrwkR-130" value="user_id" style="shape=actor;whiteSpace=wrap;html=1;labelBackgroundColor=none;" vertex="1" parent="1">
          <mxGeometry x="1070" y="790" width="40" height="60" as="geometry" />
        </mxCell>
      </root>
    </mxGraphModel>
  </diagram>
</mxfile>
